<svg xmlns="http://www.w3.org/2000/svg" viewBox="0 0 24 24" fill="none" stroke="currentColor" stroke-width="1.8" stroke-linecap="round" stroke-linejoin="round">
  <path d="M6 3 h7 l5 5 v12 a1 1 0 0 1 -1 1 H6 a1 1 0 0 1 -1 -1 V4 a1 1 0 0 1 1 -1 Z"></path>
  <path d="M13 3 v5 h5"></path>
  <path d="M11 11.5 c-1.3 0 -1.3 1.4 -1.3 2.3 c0 .9 -.9 .9 -.9 .9 c0 0 .9 0 .9 .9 c0 .9 0 2.3 1.3 2.3"></path>
  <path d="M13.4 11.5 c1.3 0 1.3 1.4 1.3 2.3 c0 .9 .9 .9 .9 .9 c0 0 -.9 0 -.9 .9 c0 .9 0 2.3 -1.3 2.3"></path>
</svg>